#!OML:ASF F:\VICON\USERDATA\INSTALL\rory3\rory3.ASF
:FULLY-SPECIFIED
:DEGREES
2846
root -3.49324 17.2632 1.0184 -0.185379 5.39237 -16.8512
lowerback 1.11974 2.18684 -12.9474
upperback -2.50106 2.19536 -13.3954
thorax -3.28099 1.22388 -7.17139
lowerneck -22.0863 14.379 -4.86826
upperneck 30.8279 24.4619 -3.09127
head 14.03 9.24415 3.84178
rclavicle 1.23246e-014 5.40694e-014
rhumerus 25.4838 -49.6181 10.4508
rradius 69.9575
rwrist 33.8869
rhand -48.3335 24.9923
rfingers 7.12502
rthumb -20.9888 -3.89202
lclavicle 1.23246e-014 5.40694e-014
lhumerus -29.6407 52.8366 20.8785
lradius 36.7869
lwrist 15.808
lhand -16.8622 21.4837
lfingers 7.12502
lthumb 9.36831 51.2555
rfemur -5.59466 -6.99314 38.1273
rtibia 27.8347
rfoot -20.1064 -3.28806
rtoes 2.80714
lfemur -13.0837 -15.0065 10.7398
ltibia 36.9299
lfoot -21.6275 12.2459
ltoes -27.9393
2847
root -3.48521 17.2613 1.01617 -0.138339 5.29506 -16.9968
lowerback 1.16511 2.17245 -12.8758
upperback -2.51449 2.16472 -13.3856
thorax -3.31961 1.20787 -7.20082
lowerneck -22.1038 14.3083 -4.86775
upperneck 30.9112 24.3649 -3.06078
head 14.0662 9.19827 3.84374
rclavicle 2.00773e-014 -9.54166e-014
rhumerus 25.1862 -49.572 10.5811
rradius 69.8241
rwrist 33.9971
rhand -48.6864 23.9732
rfingers 7.12502
rthumb -21.3278 -4.87318
lclavicle 2.00773e-014 -9.54166e-014
lhumerus -29.3 52.8434 20.9196
lradius 36.7612
lwrist 16.3203
lhand -17.9015 21.8404
lfingers 7.12502
lthumb 8.36536 51.6547
rfemur -5.65086 -6.92913 38.2509
rtibia 27.8439
rfoot -20.0552 -3.25899
rtoes 2.37199
lfemur -13.1073 -14.7969 10.8962
ltibia 36.9304
lfoot -21.6034 12.156
ltoes -27.9407
2848
root -3.47736 17.262 1.01868 -0.133558 5.20418 -17.0871
lowerback 1.19963 2.1312 -12.8824
upperback -2.50731 2.10273 -13.3722
thorax -3.33426 1.17734 -7.18067
lowerneck -22.0488 14.2797 -4.84543
upperneck 30.8896 24.3134 -3.08991
head 14.0547 9.1784 3.81615
rclavicle -2.20651e-014 1.59028e-013
rhumerus 25.0646 -49.4927 10.599
rradius 69.6633
rwrist 33.9885
rhand -49.0401 23.4878
rfingers 7.12502
rthumb -21.6676 -5.31971
lclavicle -2.20651e-014 1.59028e-013
lhumerus -29.2369 53.1571 20.6418
lradius 36.6715
lwrist 16.2587
lhand -17.9062 21.9615
lfingers 7.12502
lthumb 8.36086 51.7761
rfemur -5.61912 -6.87836 38.2989
rtibia 27.835
rfoot -20.0233 -3.12391
rtoes 2.81715
lfemur -13.0513 -14.812 10.96
ltibia 36.9359
lfoot -21.6711 12.1269
ltoes -27.713
2849
root -3.46862 17.2626 1.01921 -0.0875484 5.12548 -17.0609
lowerback 1.27864 2.0652 -13.0209
upperback -2.52652 1.98865 -13.3575
thorax -3.41048 1.1259 -7.0895
lowerneck -21.9867 14.2613 -4.91338
upperneck 30.864 24.3002 -3.10193
head 14.0243 9.16881 3.8093
rclavicle -3.47873e-014 -9.54166e-015
rhumerus 24.9232 -49.4033 10.7136
rradius 69.5473
rwrist 33.9777
rhand -49.0948 23.8609
rfingers 7.12502
rthumb -21.7201 -4.94054
lclavicle -3.47873e-014 -9.54166e-015
lhumerus -29.3776 52.9975 20.4083
lradius 36.7752
lwrist 16.7961
lhand -18.37 22.234
lfingers 7.12502
lthumb 7.91328 52.0658
rfemur -5.63145 -6.84032 38.2252
rtibia 27.8281
rfoot -20.0071 -2.95854
rtoes 3.30787
lfemur -13.0235 -14.7179 10.9039
ltibia 36.9332
lfoot -21.6922 12.1064
ltoes -27.6545
2850
root -3.45699 17.2615 1.0169 -0.110537 5.01702 -17.1056
lowerback 1.41876 2.02559 -13.0875
upperback -2.54319 1.89743 -13.3571
thorax -3.51471 1.08438 -7.05741
lowerneck -21.9049 14.2213 -4.93684
upperneck 30.9231 24.2457 -3.0801
head 14.0274 9.14392 3.80626
rclavicle -8.94531e-015 6.36111e-015
rhumerus 24.6016 -49.2523 10.965
rradius 69.5328
rwrist 33.9622
rhand -48.9316 24.1372
rfingers 7.12502
rthumb -21.5633 -4.68234
lclavicle -8.94531e-015 6.36111e-015
lhumerus -29.3792 52.6563 20.168
lradius 36.7879
lwrist 17.3917
lhand -18.5893 22.4649
lfingers 7.12502
lthumb 7.7016 52.3046
rfemur -5.58261 -6.85225 38.2105
rtibia 27.8128
rfoot -19.9024 -2.81679
rtoes 3.47421
lfemur -12.9201 -14.6591 10.8948
ltibia 36.9342
lfoot -21.7094 12.1367
ltoes -27.776
2851
root -3.4438 17.2617 1.01562 -0.0439145 4.86945 -17.2199
lowerback 1.38819 1.99234 -13.0442
upperback -2.5578 1.85731 -13.3723
thorax -3.5119 1.06291 -7.09527
lowerneck -21.8541 14.187 -4.8507
upperneck 30.9531 24.1946 -3.15776
head 14.0573 9.11606 3.75931
rclavicle -1.96797e-014 1.90833e-014
rhumerus 24.2828 -49.1268 11.293
rradius 69.4284
rwrist 33.8842
rhand -48.903 24.3976
rfingers 7.12502
rthumb -21.5359 -4.42511
lclavicle -1.96797e-014 1.90833e-014
lhumerus -29.4 52.9041 19.8298
lradius 36.7414
lwrist 17.3557
lhand -18.1709 22.685
lfingers 7.12502
lthumb 8.10538 52.5096
rfemur -5.60674 -6.88551 38.2656
rtibia 27.7818
rfoot -19.7809 -2.674
rtoes 3.04643
lfemur -12.9244 -14.5439 10.9909
ltibia 36.9549
lfoot -21.763 12.0939
ltoes -27.5812
2852
root -3.43241 17.2634 1.01676 0.0450733 4.71072 -17.2731
lowerback 1.31196 1.96905 -13.0986
upperback -2.55707 1.84018 -13.3911
thorax -3.46957 1.05389 -7.08228
lowerneck -21.839 14.1497 -4.81354
upperneck 30.9571 24.1679 -3.27592
head 14.084 9.0872 3.70957
rclavicle 2.08724e-014 -7.95139e-014
rhumerus 24.0316 -49.1038 11.5294
rradius 69.2728
rwrist 34.0981
rhand -49.1538 23.9678
rfingers 7.12502
rthumb -21.7768 -4.82713
lclavicle 2.08724e-014 -7.95139e-014
lhumerus -29.3956 53.2771 19.5716
lradius 36.6955
lwrist 17.4148
lhand -17.8559 22.6766
lfingers 7.12502
lthumb 8.4094 52.4891
rfemur -5.63707 -6.87441 38.2614
rtibia 27.7284
rfoot -19.6391 -2.56894
rtoes 2.6546
lfemur -12.933 -14.3105 11.0275
ltibia 36.9939
lfoot -21.7364 12.0215
ltoes -27.8689
